<svg id="Group_64" data-name="Group 64" xmlns="http://www.w3.org/2000/svg" xmlns:xlink="http://www.w3.org/1999/xlink" width="18.116" height="17.963" viewBox="0 0 18.116 17.963">
  <defs>
    <clipPath id="clip-path">
      <rect id="Rectangle_52" data-name="Rectangle 52" width="18.116" height="17.963" fill="#404141"/>
    </clipPath>
  </defs>
  <g id="Group_63" data-name="Group 63" clip-path="url(#clip-path)">
    <path id="Path_149" data-name="Path 149" d="M4.371,2.185A2.185,2.185,0,1,1,2.185,0,2.185,2.185,0,0,1,4.371,2.185" fill="#404141"/>
    <rect id="Rectangle_51" data-name="Rectangle 51" width="3.676" height="12.049" transform="translate(0.35 5.914)" fill="#404141"/>
    <path id="Path_150" data-name="Path 150" d="M69.884,60.714v-1.67H66.239V71.093h3.645V66.332c0-2.062.276-3.049.773-3.588l.029-.032a2.012,2.012,0,0,1,2.886-.139,2.724,2.724,0,0,1,.584,1.856v6.665h3.891V64.745c0-4.57-1.7-5.821-3.909-5.991l-.192-.015a4.065,4.065,0,0,0-4.062,1.974" transform="translate(-59.932 -53.131)" fill="#404141"/>
  </g>
</svg>
