<svg xmlns="http://www.w3.org/2000/svg" width="19.213" height="19.218" viewBox="0 0 19.213 19.218">
  <g id="Group_432" data-name="Group 432" transform="translate(-104 -658)">
    <path id="Subtraction_1" data-name="Subtraction 1" d="M9.633,19.218h0a55.868,55.868,0,0,1-6.481-.23,3.672,3.672,0,0,1-2.828-2.8,17.348,17.348,0,0,1-.3-4.826c.014-.574.029-1.167.029-1.755C.056,8.8.048,8.072.041,7.431,0,4.048-.011,2.648,1.253,1.335,2.371.175,3.543,0,6.994,0,7.619,0,8.306.006,9.1.012l.357,0c.934.008,2.036.016,3.3.016a17.567,17.567,0,0,1,2.8.085l.025,0a4.132,4.132,0,0,1,3.613,4.063c.024.3.025,10.539,0,10.846a4.117,4.117,0,0,1-3.068,3.958A55.818,55.818,0,0,1,9.633,19.218Zm0-2.533c.243,0,.486,0,.729,0s.487,0,.727,0c2.261,0,4.364-.187,5.246-2.45a11.261,11.261,0,0,0,.373-3.923c0-.231,0-.466,0-.71,0-.261,0-.514,0-.759V8.844c.013-2.354.021-3.909-1.191-5.12-1.106-1.107-2.57-1.195-4.369-1.195-.229,0-.465,0-.708,0-.261,0-.529,0-.807,0-.234,0-.468,0-.7,0s-.454,0-.678,0c-2.391,0-4.442.184-5.325,2.448a11.291,11.291,0,0,0-.373,3.935q0,.337,0,.7,0,.294,0,.584a12.447,12.447,0,0,0,.373,4.048c.88,2.264,2.933,2.448,5.327,2.448.221,0,.444,0,.668,0h.01C9.166,16.687,9.4,16.685,9.632,16.685Zm1.6-1.266h0c-.248,0-.5,0-.765-.006s-.552-.006-.837-.006c-5.635,0-5.8-.163-5.8-5.8,0-2.893.117-4.306.813-5.036S6.549,3.813,9,3.81h.082c.369,0,.716,0,1.051-.006s.674-.006.978-.006c1.8,0,2.83.122,3.47.792.954,1,1.021,3.237.81,7.878C15.266,15.2,13.514,15.42,11.236,15.42Zm-1.6-9.442a3.633,3.633,0,1,0,3.631,3.634A3.637,3.637,0,0,0,9.634,5.978Zm3.776-.992a.849.849,0,1,0,.849.849A.85.85,0,0,0,13.41,4.986ZM9.634,11.969A2.253,2.253,0,0,1,7.294,9.61a2.437,2.437,0,0,1,.585-1.62,2.26,2.26,0,0,1,1.755-.736,2.252,2.252,0,0,1,2.339,2.359,2.438,2.438,0,0,1-.585,1.621A2.26,2.26,0,0,1,9.634,11.969Z" transform="translate(104 658)" fill="#404141"/>
  </g>
</svg>
