<svg xmlns="http://www.w3.org/2000/svg" width="30.374" height="18.344" viewBox="0 0 30.374 18.344">
  <g id="Group_52" data-name="Group 52" transform="translate(49.656 -24.892) rotate(90)">
    <g id="Group_51" data-name="Group 51" transform="translate(24.892 19.282)">
      <g id="Group_50" data-name="Group 50" transform="translate(0 0)">
        <path id="Path_144" data-name="Path 144" d="M237.485,203.5A1.485,1.485,0,0,0,236,204.985v19.941a1.485,1.485,0,0,0,2.971,0V204.985A1.485,1.485,0,0,0,237.485,203.5Z" transform="translate(-228.35 -196.038)" fill="#fff"/>
        <path id="Path_145" data-name="Path 145" d="M145.283,104.327a4.461,4.461,0,0,0-6.3,0l-5.549,5.554a1.485,1.485,0,0,0,2.1,2.1l5.549-5.554a1.487,1.487,0,0,1,2.1,0l.007.006,5.623,5.554a1.485,1.485,0,0,0,2.088-2.114Z" transform="translate(-133 -103.028)" fill="#fff"/>
      </g>
    </g>
  </g>
</svg>
