<svg xmlns="http://www.w3.org/2000/svg" width="16.525" height="18.795" viewBox="0 0 16.525 18.795">
  <g id="Group_371" data-name="Group 371" transform="translate(-16 1.361)">
    <g id="Group_366" data-name="Group 366" transform="translate(19.856 -1.362)">
      <g id="Group_365" data-name="Group 365">
        <path id="Path_313" data-name="Path 313" d="M136.762,7.842a.55.55,0,0,0-.5-.323h-2.2V-1.359c0,.008-3.338-.009-3.3,0V7.519h-2.2a.551.551,0,0,0-.414.913l3.856,4.407a.55.55,0,0,0,.828,0l3.856-4.407A.549.549,0,0,0,136.762,7.842Z" transform="translate(-127.998 1.362)" fill="#fff"/>
      </g>
    </g>
    <g id="Group_368" data-name="Group 368" transform="translate(16 11.926)">
      <g id="Group_367" data-name="Group 367">
        <path id="Path_314" data-name="Path 314" d="M30.322,352v3.3H18.2V352H16v4.407a1.1,1.1,0,0,0,1.1,1.1H31.423a1.1,1.1,0,0,0,1.1-1.1V352Z" transform="translate(-16 -352)" fill="#fff"/>
      </g>
    </g>
  </g>
</svg>
