<svg xmlns="http://www.w3.org/2000/svg" width="10.453" height="12.529" viewBox="0 0 10.453 12.529">
  <g id="Group_66" data-name="Group 66" transform="translate(0 0)">
    <path id="Path_151" data-name="Path 151" d="M90.049,6.035a2.92,2.92,0,0,0,2.134-.884,2.92,2.92,0,0,0,.884-2.134A2.92,2.92,0,0,0,92.183.884a3.017,3.017,0,0,0-4.267,0,2.92,2.92,0,0,0-.884,2.133,2.92,2.92,0,0,0,.884,2.134A2.92,2.92,0,0,0,90.049,6.035Zm0,0" transform="translate(-84.902)" fill="#fff"/>
    <path id="Path_152" data-name="Path 152" d="M10.427,250.9a7.452,7.452,0,0,0-.1-.792,6.238,6.238,0,0,0-.195-.8,3.931,3.931,0,0,0-.327-.742,2.8,2.8,0,0,0-.493-.643,2.175,2.175,0,0,0-.709-.445,2.45,2.45,0,0,0-.9-.164.918.918,0,0,0-.49.208c-.147.1-.319.207-.511.329a2.927,2.927,0,0,1-.661.291,2.567,2.567,0,0,1-1.617,0,2.922,2.922,0,0,1-.661-.291c-.19-.121-.362-.232-.511-.33a.917.917,0,0,0-.49-.208,2.447,2.447,0,0,0-.9.164,2.174,2.174,0,0,0-.709.445,2.8,2.8,0,0,0-.493.643,3.939,3.939,0,0,0-.327.742,6.251,6.251,0,0,0-.195.8,7.427,7.427,0,0,0-.1.792c-.017.24-.025.489-.025.74a2.08,2.08,0,0,0,.618,1.574,2.224,2.224,0,0,0,1.592.581H8.242a2.224,2.224,0,0,0,1.592-.581,2.079,2.079,0,0,0,.618-1.574c0-.252-.009-.5-.025-.74Zm0,0" transform="translate(0 -241.264)" fill="#fff"/>
  </g>
</svg>
